<svg width="192" height="45" viewBox="0 0 192 45" fill="none" xmlns="http://www.w3.org/2000/svg">
<path d="M19.2017 20.7449L26.2665 27.8706C26.3808 27.9964 26.468 28.1445 26.5228 28.3057C26.5776 28.467 26.5987 28.6378 26.5848 28.8076C26.5709 28.9774 26.5223 29.1425 26.4421 29.2926C26.3619 29.4426 26.2518 29.5745 26.1186 29.6799C23.8853 31.3368 21.2816 32.4176 18.5359 32.8276C18.363 32.8468 18.1879 32.829 18.0223 32.7754C17.8567 32.7218 17.7043 32.6336 17.575 32.5166C17.4457 32.3995 17.3426 32.2563 17.2723 32.0963C17.202 31.9363 17.1663 31.7632 17.1673 31.5883L17.1673 21.5256C17.1949 21.3024 17.2825 21.0909 17.4205 20.9139C17.5586 20.7369 17.742 20.6009 17.9511 20.5207C18.1601 20.4405 18.387 20.4189 18.6073 20.4584C18.8276 20.4979 19.0331 20.5969 19.2017 20.7449ZM29.7681 26.0489C31.4091 23.8012 32.4799 21.1851 32.8875 18.4275C32.9062 18.2587 32.8903 18.088 32.8406 17.9257C32.791 17.7634 32.7087 17.6131 32.5989 17.4842C32.489 17.3552 32.354 17.2503 32.2022 17.1759C32.0503 17.1015 31.8849 17.0593 31.7162 17.0519L21.6676 17.0519C21.4426 17.0713 21.2271 17.1524 21.0448 17.2864C20.8625 17.4205 20.7204 17.6023 20.6339 17.812C20.5474 18.0217 20.5198 18.2512 20.5543 18.4756C20.5887 18.7 20.6838 18.9105 20.8292 19.0843L27.9187 26.21C28.0451 26.3282 28.1948 26.4185 28.3581 26.4749C28.5214 26.5313 28.6947 26.5526 28.8667 26.5375C29.0388 26.5223 29.2057 26.4709 29.3567 26.3868C29.5077 26.3026 29.6395 26.1875 29.7434 26.0489L29.7681 26.0489ZM14.8001 31.5883L14.8001 21.5256C14.7792 21.3016 14.6982 21.0876 14.5655 20.9064C14.4329 20.7253 14.2537 20.5838 14.0472 20.4972C13.8406 20.4106 13.6145 20.3821 13.3931 20.4148C13.1717 20.4475 12.9633 20.5402 12.7903 20.6829L5.70086 27.8706C5.58658 27.9964 5.49934 28.1445 5.44458 28.3058C5.38982 28.467 5.36873 28.6378 5.38261 28.8076C5.3965 28.9774 5.44506 29.1425 5.52528 29.2926C5.60549 29.4427 5.71563 29.5745 5.84882 29.6799C8.08286 31.3355 10.6862 32.4162 13.4315 32.8276C13.6044 32.8468 13.7794 32.829 13.9451 32.7754C14.1107 32.7218 14.2631 32.6336 14.3924 32.5166C14.5217 32.3995 14.6248 32.2563 14.6951 32.0963C14.7653 31.9363 14.8011 31.7632 14.8001 31.5883ZM31.6792 14.6849C31.8543 14.6862 32.0277 14.6499 32.1879 14.5786C32.348 14.5072 32.4911 14.4024 32.6078 14.2711C32.7245 14.1397 32.8119 13.9849 32.8644 13.817C32.9169 13.649 32.9332 13.4717 32.9121 13.297C32.4992 10.5365 31.4197 7.91981 29.7681 5.67556C29.6605 5.53438 29.524 5.41811 29.3677 5.33468C29.2115 5.25124 29.0392 5.20257 28.8626 5.19199C28.686 5.18141 28.5092 5.20916 28.3442 5.27336C28.1792 5.33755 28.0298 5.43669 27.9063 5.56403L20.8292 12.6773C20.6876 12.8504 20.5953 13.0588 20.5622 13.2804C20.529 13.502 20.5563 13.7284 20.641 13.9357C20.7258 14.143 20.8649 14.3232 21.0435 14.4573C21.2221 14.5915 21.4335 14.6744 21.6553 14.6973L31.6792 14.6849ZM33.7999 0.284819L32.0244 1.84627C31.8057 2.05762 31.6722 2.34261 31.6495 2.6467C31.6267 2.95079 31.7163 3.25263 31.9011 3.49448C34.9074 7.39452 36.3887 12.2661 36.0652 17.189C35.7417 22.1119 33.6358 26.7453 30.1452 30.2141C26.6547 33.6828 22.0212 35.7467 17.1199 36.0158C12.2186 36.285 7.38899 34.7409 3.54319 31.6751C3.30545 31.4996 3.013 31.4156 2.71892 31.4384C2.42483 31.4611 2.14861 31.589 1.94035 31.799L0.300527 33.5711C0.0888076 33.8171 -0.018218 34.1369 0.00254163 34.4614C0.0233012 34.786 0.170182 35.0894 0.411493 35.3061C5.1526 39.2406 11.1785 41.2654 17.3206 40.9877C23.4627 40.71 29.2833 38.1496 33.6538 33.8031C38.0243 29.4566 40.6332 23.6336 40.9746 17.4635C41.3159 11.2933 39.3654 5.21549 35.5013 0.408743C35.2883 0.171622 34.9924 0.026358 34.6754 0.00326768C34.3583 -0.0198265 34.0447 0.0810456 33.7999 0.284819ZM18.166 14.9823C18.1221 14.8778 18.0534 14.7857 17.9658 14.7141C17.8783 14.6425 17.7746 14.5935 17.6639 14.5715C17.5532 14.5495 17.4388 14.5551 17.3307 14.5878C17.2227 14.6206 17.1242 14.6794 17.044 14.7593L14.8864 16.9404C14.8067 17.0197 14.7479 17.1177 14.7152 17.2255C14.6825 17.3332 14.6769 17.4475 14.6989 17.558C14.7209 17.6685 14.7698 17.7718 14.8412 17.8587C14.9127 17.9455 15.0044 18.0132 15.1083 18.0557C15.5354 18.2202 16.0009 18.2569 16.4483 18.1612C16.8957 18.0655 17.306 17.8415 17.6295 17.5164C17.9529 17.1913 18.1758 16.7789 18.271 16.3292C18.3662 15.8795 18.3297 15.4117 18.166 14.9823Z" fill="#FFC222"/>
<path d="M59.3013 34.3845V23.4382C59.3013 20.9613 60.8594 19.3634 63.2963 19.3634C65.4136 19.3634 66.8119 21.0013 66.8119 23.5181V34.3845H72.9642V22.04C72.9642 16.8066 70.2076 13.7704 65.4536 13.7704C62.8569 13.7704 60.5797 14.7691 59.3413 16.487V4.26231H53.149V34.3845H59.3013Z" fill="white"/>
<path d="M86.6448 34.9038C92.1179 34.9038 96.073 32.0674 96.7921 27.633H91.1591C90.7197 29.0712 89.0817 29.9101 86.7646 29.9101C84.0481 29.9101 82.5699 28.6717 82.2104 26.035L96.7122 25.9551V24.397C96.7122 17.8852 92.7971 13.7704 86.5249 13.7704C80.4925 13.7704 76.2978 18.1249 76.2978 24.3571C76.2978 30.5094 80.6124 34.9038 86.6448 34.9038ZM86.5649 18.7641C89.0418 18.7641 90.5998 20.1224 90.5998 22.2397H82.2903C82.7697 19.8427 84.128 18.7641 86.5649 18.7641Z" fill="white"/>
<path d="M106.193 34.9038C109.189 34.9038 111.826 33.5855 112.465 31.7478L112.864 34.3845H118.298V22.7191C118.298 17.0063 115.022 13.7704 109.229 13.7704C103.516 13.7704 99.8008 16.7267 99.8008 21.241H104.914C104.914 19.4433 106.313 18.4445 108.909 18.4445C111.107 18.4445 112.305 19.4832 112.305 21.4407V21.7603L106.712 22.1998C101.918 22.5593 99.3214 24.8365 99.3214 28.5119C99.3214 32.4269 101.958 34.9038 106.193 34.9038ZM108.35 30.3496C106.472 30.3496 105.594 29.6704 105.594 28.2322C105.594 26.9538 106.552 26.3546 109.229 26.1149L112.345 25.8352V26.9139C112.345 29.191 110.707 30.3496 108.35 30.3496Z" fill="white"/>
<path d="M128.862 34.3845V4.26231H122.71V34.3845H128.862Z" fill="white"/>
<path d="M141.548 34.3845V19.5232H145.343V14.4096H141.548V8.21735H135.395V14.4096H131.6V19.5232H135.395V34.3845H141.548Z" fill="white"/>
<path d="M154.26 34.3845V23.4382C154.26 20.9613 155.818 19.3634 158.255 19.3634C160.373 19.3634 161.771 21.0013 161.771 23.5181V34.3845H167.923V22.04C167.923 16.8066 165.166 13.7704 160.412 13.7704C157.816 13.7704 155.539 14.7691 154.3 16.487L153.901 14.4096H148.108V34.3845H154.26Z" fill="white"/>
<path d="M170.347 43.9724C171.546 44.332 172.944 44.5317 174.422 44.5317C177.938 44.5317 180.175 42.8139 181.853 38.739L192 14.4096H185.608L180.774 27.2335L176.42 14.4096H169.828L177.858 35.0636L177.498 36.0224C176.699 38.1797 175.82 38.8189 173.743 38.8189H170.347V43.9724Z" fill="white"/>
</svg>
